<svg width="626" height="705" viewBox="0 0 626 705" fill="none" xmlns="http://www.w3.org/2000/svg">
<path d="M50.823 26.0002H408.897V584H282.897V138V120.844L266.89 114.673L54.7309 32.8889L50.823 26.0002Z" stroke="#A4ACB9" stroke-width="50"/>
<path d="M25.5957 589.623L28.5159 34.2818L285.397 117.201L285.397 670.53L25.5957 589.623Z" stroke="#A4ACB9" stroke-width="50"/>
<path d="M620.142 319.142C627.953 311.332 627.953 298.668 620.142 290.858L492.863 163.579C485.052 155.768 472.389 155.768 464.579 163.579C456.768 171.389 456.768 184.052 464.579 191.863L577.716 305L464.579 418.137C456.768 425.948 456.768 438.611 464.579 446.421C472.389 454.232 485.052 454.232 492.863 446.421L620.142 319.142ZM324 325H606V285H324V325Z" fill="#A4ACB9"/>
</svg>
